<svg width="1200" height="1480" xmlns="http://www.w3.org/2000/svg" viewBox="0 0 1200 1480">
  <defs>
    <!-- Stainless steel gradients -->
    <linearGradient id="steel-h" x1="0" y1="0" x2="0" y2="1">
      <stop offset="0%"   stop-color="#f0f4f7"/>
      <stop offset="18%"  stop-color="#d0d8e0"/>
      <stop offset="50%"  stop-color="#8fa0b0"/>
      <stop offset="82%"  stop-color="#d0d8e0"/>
      <stop offset="100%" stop-color="#f0f4f7"/>
    </linearGradient>
    <linearGradient id="steel-v" x1="0" y1="0" x2="1" y2="0">
      <stop offset="0%"   stop-color="#f0f4f7"/>
      <stop offset="18%"  stop-color="#d0d8e0"/>
      <stop offset="50%"  stop-color="#8fa0b0"/>
      <stop offset="82%"  stop-color="#d0d8e0"/>
      <stop offset="100%" stop-color="#f0f4f7"/>
    </linearGradient>
    <linearGradient id="steel-blade" x1="0" y1="0" x2="0" y2="1">
      <stop offset="0%"   stop-color="#e8edf2"/>
      <stop offset="40%"  stop-color="#b8c8d8"/>
      <stop offset="60%"  stop-color="#7898b0"/>
      <stop offset="100%" stop-color="#c8d8e8"/>
    </linearGradient>
    <linearGradient id="handle-grip" x1="0" y1="0" x2="0" y2="1">
      <stop offset="0%"   stop-color="#4a5568"/>
      <stop offset="50%"  stop-color="#2d3748"/>
      <stop offset="100%" stop-color="#4a5568"/>
    </linearGradient>
    <linearGradient id="ring-grad" x1="0" y1="0" x2="0" y2="1">
      <stop offset="0%"   stop-color="#e2e8f0"/>
      <stop offset="50%"  stop-color="#94a3b8"/>
      <stop offset="100%" stop-color="#e2e8f0"/>
    </linearGradient>
    <filter id="shadow" x="-5%" y="-5%" width="110%" height="120%">
      <feDropShadow dx="1" dy="2" stdDeviation="2" flood-color="#00000030"/>
    </filter>
    <style>
      text { font-family: -apple-system, BlinkMacSystemFont, 'Segoe UI', Arial, sans-serif; }
      .card-title { font-size: 12.5px; font-weight: 700; fill: #1e293b; }
      .card-sub   { font-size: 10px;   fill: #475569; font-style: italic; }
      .section-hd { font-size: 14px;   font-weight: 800; }
    </style>
  </defs>

  <!-- Page background -->
  <rect width="1200" height="1480" fill="#f1f5f9" rx="6"/>
  <text x="600" y="34" text-anchor="middle" font-size="22" font-weight="800" fill="#0f172a">Surgical Instrument Reference</text>
  <text x="600" y="54" text-anchor="middle" font-size="11" fill="#64748b">Detailed technical illustrations — stainless steel instruments shown to relative scale</text>

  <!-- ═══════════════════════════════════════════════════
       SECTION 1: CUTTING AND DISSECTING
  ═══════════════════════════════════════════════════ -->
  <rect x="20" y="66" width="1160" height="18" rx="4" fill="#dc2626"/>
  <text x="600" y="79" text-anchor="middle" class="section-hd" fill="white">CUTTING AND DISSECTING</text>

  <!-- ─── Card: #10 Scalpel ─── -->
  <rect x="20" y="90" width="270" height="165" rx="6" fill="white" stroke="#e2e8f0" stroke-width="1.5" filter="url(#shadow)"/>
  <text x="155" y="110" text-anchor="middle" class="card-title">#10 Blade on #3 Handle</text>
  <text x="155" y="124" text-anchor="middle" class="card-sub">Large curved belly — general skin incisions</text>
  <!-- Handle body with grip grooves -->
  <rect x="28" y="138" width="118" height="18" rx="3" fill="url(#handle-grip)"/>
  <!-- Grip serrations -->
  <line x1="55"  y1="138" x2="55"  y2="156" stroke="#718096" stroke-width="1"/>
  <line x1="65"  y1="138" x2="65"  y2="156" stroke="#718096" stroke-width="1"/>
  <line x1="75"  y1="138" x2="75"  y2="156" stroke="#718096" stroke-width="1"/>
  <line x1="85"  y1="138" x2="85"  y2="156" stroke="#718096" stroke-width="1"/>
  <line x1="95"  y1="138" x2="95"  y2="156" stroke="#718096" stroke-width="1"/>
  <line x1="105" y1="138" x2="105" y2="156" stroke="#718096" stroke-width="1"/>
  <line x1="115" y1="138" x2="115" y2="156" stroke="#718096" stroke-width="1"/>
  <!-- Blade collar/tang -->
  <rect x="146" y="136" width="14" height="22" rx="1" fill="#7090a8"/>
  <!-- #10 blade — large curved belly -->
  <path d="M 160,137 L 230,141 Q 248,143 250,147 Q 248,155 230,155 L 160,155 Z" fill="url(#steel-blade)" stroke="#4a6070" stroke-width="0.8"/>
  <!-- Blade cutting edge highlight -->
  <path d="M 160,152 Q 210,157 250,147" stroke="#ffffff" stroke-width="1.2" fill="none" opacity="0.7"/>
  <!-- Back spine of blade -->
  <path d="M 160,137 L 250,140" stroke="#7090a8" stroke-width="1.5"/>
  <text x="155" y="218" text-anchor="middle" class="card-sub">Handles: #3 (std) · #4 (heavy) · #7 (long)</text>
  <text x="155" y="232" text-anchor="middle" class="card-sub">Blade fits: #3 → 10, 11, 12, 15</text>

  <!-- ─── Card: #15 Blade ─── -->
  <rect x="300" y="90" width="270" height="165" rx="6" fill="white" stroke="#e2e8f0" stroke-width="1.5" filter="url(#shadow)"/>
  <text x="435" y="110" text-anchor="middle" class="card-title">#15 Blade on #3 Handle</text>
  <text x="435" y="124" text-anchor="middle" class="card-sub">Small curved belly — fine incisions, pediatric, ENT</text>
  <rect x="308" y="138" width="118" height="18" rx="3" fill="url(#handle-grip)"/>
  <line x1="335" y1="138" x2="335" y2="156" stroke="#718096" stroke-width="1"/>
  <line x1="345" y1="138" x2="345" y2="156" stroke="#718096" stroke-width="1"/>
  <line x1="355" y1="138" x2="355" y2="156" stroke="#718096" stroke-width="1"/>
  <line x1="365" y1="138" x2="365" y2="156" stroke="#718096" stroke-width="1"/>
  <line x1="375" y1="138" x2="375" y2="156" stroke="#718096" stroke-width="1"/>
  <line x1="385" y1="138" x2="385" y2="156" stroke="#718096" stroke-width="1"/>
  <line x1="395" y1="138" x2="395" y2="156" stroke="#718096" stroke-width="1"/>
  <rect x="426" y="136" width="14" height="22" rx="1" fill="#7090a8"/>
  <!-- #15 blade — small curved, pointier -->
  <path d="M 440,138 L 500,141 Q 515,143 516,147 Q 514,153 500,155 L 440,154 Z" fill="url(#steel-blade)" stroke="#4a6070" stroke-width="0.8"/>
  <path d="M 440,152 Q 490,157 516,147" stroke="#ffffff" stroke-width="1.2" fill="none" opacity="0.7"/>
  <path d="M 440,138 L 516,141" stroke="#7090a8" stroke-width="1.5"/>
  <text x="435" y="218" text-anchor="middle" class="card-sub">Neck/face/pediatric/plastics/ophthalmology</text>
  <text x="435" y="232" text-anchor="middle" class="card-sub">Small belly; finer control than #10</text>

  <!-- ─── Card: #11 Blade ─── -->
  <rect x="580" y="90" width="270" height="165" rx="6" fill="white" stroke="#e2e8f0" stroke-width="1.5" filter="url(#shadow)"/>
  <text x="715" y="110" text-anchor="middle" class="card-title">#11 Blade on #3 Handle</text>
  <text x="715" y="124" text-anchor="middle" class="card-sub">Triangular point — stab incisions, port sites, arteriotomy</text>
  <rect x="588" y="138" width="118" height="18" rx="3" fill="url(#handle-grip)"/>
  <line x1="615" y1="138" x2="615" y2="156" stroke="#718096" stroke-width="1"/>
  <line x1="625" y1="138" x2="625" y2="156" stroke="#718096" stroke-width="1"/>
  <line x1="635" y1="138" x2="635" y2="156" stroke="#718096" stroke-width="1"/>
  <line x1="645" y1="138" x2="645" y2="156" stroke="#718096" stroke-width="1"/>
  <line x1="655" y1="138" x2="655" y2="156" stroke="#718096" stroke-width="1"/>
  <line x1="665" y1="138" x2="665" y2="156" stroke="#718096" stroke-width="1"/>
  <line x1="675" y1="138" x2="675" y2="156" stroke="#718096" stroke-width="1"/>
  <rect x="706" y="136" width="14" height="22" rx="1" fill="#7090a8"/>
  <!-- #11 blade — pointed triangular -->
  <path d="M 720,138 L 760,138 L 790,147 L 760,156 L 720,156 Z" fill="url(#steel-blade)" stroke="#4a6070" stroke-width="0.8"/>
  <path d="M 720,156 L 790,147" stroke="#ffffff" stroke-width="1.2" opacity="0.7"/>
  <text x="715" y="218" text-anchor="middle" class="card-sub">Pointed tip = sharp stab entry</text>
  <text x="715" y="232" text-anchor="middle" class="card-sub">Port incisions · abscess · arteriotomy</text>

  <!-- ─── Card: Mayo Scissors ─── -->
  <rect x="860" y="90" width="320" height="165" rx="6" fill="white" stroke="#e2e8f0" stroke-width="1.5" filter="url(#shadow)"/>
  <text x="1020" y="110" text-anchor="middle" class="card-title">Mayo Scissors (Straight)</text>
  <text x="1020" y="124" text-anchor="middle" class="card-sub">Heavy blades, blunt tip — fascia, heavy suture</text>
  <!-- Ring 1 -->
  <circle cx="900" cy="152" r="17" fill="none" stroke="url(#ring-grad)" stroke-width="7"/>
  <circle cx="900" cy="152" r="10" fill="white" stroke="#c0ccd8" stroke-width="1"/>
  <!-- Ring 2 -->
  <circle cx="934" cy="152" r="17" fill="none" stroke="url(#ring-grad)" stroke-width="7"/>
  <circle cx="934" cy="152" r="10" fill="white" stroke="#c0ccd8" stroke-width="1"/>
  <!-- Shanks -->
  <path d="M 910,148 L 960,160" stroke="#8090a0" stroke-width="7" stroke-linecap="round"/>
  <path d="M 924,148 L 972,160" stroke="#8090a0" stroke-width="7" stroke-linecap="round"/>
  <!-- Box lock -->
  <rect x="952" y="154" width="14" height="12" rx="2" fill="#6080a0" stroke="#405060" stroke-width="1"/>
  <!-- Blades — heavy, straight -->
  <path d="M 966,156 L 1150,157 Q 1155,157 1155,160 Q 1155,163 1150,163 L 966,163 Z" fill="url(#steel-h)" stroke="#6080a0" stroke-width="0.8"/>
  <path d="M 966,163 L 1150,163 Q 1155,163 1155,166 Q 1155,169 1150,169 L 966,169 Z" fill="url(#steel-h)" stroke="#6080a0" stroke-width="0.8"/>
  <!-- Blade highlight -->
  <line x1="968" y1="158" x2="1150" y2="158" stroke="#ffffff" stroke-width="0.8" opacity="0.6"/>

  <!-- ─── Card: Metzenbaum Scissors ─── -->
  <rect x="20" y="265" width="375" height="175" rx="6" fill="white" stroke="#e2e8f0" stroke-width="1.5" filter="url(#shadow)"/>
  <text x="207" y="285" text-anchor="middle" class="card-title">Metzenbaum Scissors</text>
  <text x="207" y="299" text-anchor="middle" class="card-sub">Long slender blades, slightly curved — delicate tissue dissection</text>
  <!-- Rings -->
  <circle cx="55"  cy="335" r="17" fill="none" stroke="url(#ring-grad)" stroke-width="7"/>
  <circle cx="55"  cy="335" r="10" fill="white" stroke="#c0ccd8" stroke-width="1"/>
  <circle cx="90"  cy="335" r="17" fill="none" stroke="url(#ring-grad)" stroke-width="7"/>
  <circle cx="90"  cy="335" r="10" fill="white" stroke="#c0ccd8" stroke-width="1"/>
  <!-- Long shanks -->
  <path d="M 66,332 L 130,346" stroke="#8090a0" stroke-width="5" stroke-linecap="round"/>
  <path d="M 79,332 L 142,346" stroke="#8090a0" stroke-width="5" stroke-linecap="round"/>
  <!-- Box lock -->
  <rect x="126" y="340" width="12" height="10" rx="2" fill="#6080a0" stroke="#405060" stroke-width="1"/>
  <!-- Blades — longer, finer, slightly curved -->
  <path d="M 138,342 Q 260,335 370,340 Q 372,342 370,345 Q 260,348 138,348 Z" fill="url(#steel-h)" stroke="#6080a0" stroke-width="0.7"/>
  <path d="M 138,348 Q 260,348 370,345 Q 372,348 370,351 Q 260,354 138,354 Z" fill="url(#steel-h)" stroke="#6080a0" stroke-width="0.7"/>
  <path d="M 140,344 Q 265,337 369,341" stroke="#ffffff" stroke-width="0.8" fill="none" opacity="0.6"/>
  <text x="207" y="413" text-anchor="middle" class="card-sub">Curved jaw version also common</text>
  <text x="207" y="427" text-anchor="middle" class="card-sub">Never cut suture with Metz — ruins the blade</text>

  <!-- ─── Card: Electrosurgical Pencil ─── -->
  <rect x="410" y="265" width="350" height="175" rx="6" fill="white" stroke="#e2e8f0" stroke-width="1.5" filter="url(#shadow)"/>
  <text x="585" y="285" text-anchor="middle" class="card-title">Electrosurgical Pencil (Bovie)</text>
  <text x="585" y="299" text-anchor="middle" class="card-sub">Monopolar ESU — cut and coagulate modes</text>
  <!-- Pencil body -->
  <rect x="430" y="326" width="220" height="24" rx="10" fill="#1a202c" stroke="#2d3748" stroke-width="1"/>
  <!-- Grip texture dots -->
  <circle cx="450" cy="332" r="2" fill="#4a5568"/><circle cx="450" cy="339" r="2" fill="#4a5568"/>
  <circle cx="458" cy="332" r="2" fill="#4a5568"/><circle cx="458" cy="339" r="2" fill="#4a5568"/>
  <circle cx="466" cy="332" r="2" fill="#4a5568"/><circle cx="466" cy="339" r="2" fill="#4a5568"/>
  <!-- CUT button (yellow) -->
  <rect x="492" y="328" width="38" height="18" rx="4" fill="#f6c90e" stroke="#d4a810" stroke-width="1"/>
  <text x="511" y="340" text-anchor="middle" font-size="8" font-weight="700" fill="#7b5800">CUT</text>
  <!-- COAG button (blue) -->
  <rect x="538" y="328" width="38" height="18" rx="4" fill="#3b82f6" stroke="#1d4ed8" stroke-width="1"/>
  <text x="557" y="340" text-anchor="middle" font-size="8" font-weight="700" fill="white">COAG</text>
  <!-- Active electrode tip -->
  <path d="M 650,330 L 665,335 L 650,342 Z" fill="#9090a0"/>
  <rect x="663" y="333" width="60" height="4" rx="1" fill="#707080"/>
  <!-- Cord -->
  <path d="M 430,338 Q 410,338 400,355 Q 395,370 405,380" stroke="#6b7280" stroke-width="4" fill="none" stroke-linecap="round"/>
  <text x="585" y="413" text-anchor="middle" class="card-sub">Yellow = CUT · Blue = COAG</text>
  <text x="585" y="427" text-anchor="middle" class="card-sub">Pass tip-first in neutral zone; never palm-to-palm</text>

  <!-- ─── Card: Harmonic / Energy Device ─── -->
  <rect x="775" y="265" width="405" height="175" rx="6" fill="white" stroke="#e2e8f0" stroke-width="1.5" filter="url(#shadow)"/>
  <text x="977" y="285" text-anchor="middle" class="card-title">Harmonic Scalpel (Ultrasonic Energy)</text>
  <text x="977" y="299" text-anchor="middle" class="card-sub">Simultaneous cut + vessel seal up to 7 mm — laparoscopic dissection</text>
  <!-- Handle body -->
  <rect x="795" y="322" width="190" height="28" rx="8" fill="#1e3a5f" stroke="#0f2040" stroke-width="1"/>
  <!-- Activation button -->
  <rect x="840" y="326" width="50" height="20" rx="4" fill="#38bdf8" stroke="#0ea5e9" stroke-width="1"/>
  <text x="865" y="338" text-anchor="middle" font-size="8" font-weight="700" fill="#0c4a6e">MAX</text>
  <rect x="900" y="326" width="50" height="20" rx="4" fill="#34d399" stroke="#059669" stroke-width="1"/>
  <text x="925" y="338" text-anchor="middle" font-size="8" font-weight="700" fill="#064e3b">MIN</text>
  <!-- Shaft -->
  <rect x="985" y="330" width="155" height="8" rx="3" fill="#8090a0"/>
  <!-- Jaw tip -->
  <path d="M 1138,328 Q 1158,334 1158,336 Q 1158,338 1138,342 L 1138,336 Z" fill="#7090a8" stroke="#4a6070" stroke-width="0.8"/>
  <path d="M 1138,336 Q 1150,336 1158,336" stroke="#c0d0e0" stroke-width="1.5" fill="none"/>
  <!-- Cord -->
  <path d="M 795,336 Q 775,336 765,348 Q 758,360 768,372" stroke="#6b7280" stroke-width="4" fill="none" stroke-linecap="round"/>
  <text x="977" y="413" text-anchor="middle" class="card-sub">LigaSure / EnSeal use same principle</text>
  <text x="977" y="427" text-anchor="middle" class="card-sub">Seals vessels WITHOUT clips; less smoke than monopolar</text>

  <!-- ═══════════════════════════════════════════════════
       SECTION 2: GRASPING AND CLAMPING
  ═══════════════════════════════════════════════════ -->
  <rect x="20" y="452" width="1160" height="18" rx="4" fill="#1d4ed8"/>
  <text x="600" y="465" text-anchor="middle" class="section-hd" fill="white">GRASPING AND CLAMPING</text>

  <!-- ─── Card: Kelly / Crile Hemostat ─── -->
  <rect x="20" y="477" width="365" height="190" rx="6" fill="white" stroke="#e2e8f0" stroke-width="1.5" filter="url(#shadow)"/>
  <text x="202" y="497" text-anchor="middle" class="card-title">Kelly Hemostat</text>
  <text x="202" y="511" text-anchor="middle" class="card-sub">Medium; half-serrated jaw — clamping vessels and pedicles</text>
  <!-- Rings -->
  <circle cx="58"  cy="555" r="20" fill="none" stroke="url(#ring-grad)" stroke-width="8"/>
  <circle cx="58"  cy="555" r="12" fill="white" stroke="#c0ccd8" stroke-width="1"/>
  <circle cx="98"  cy="555" r="20" fill="none" stroke="url(#ring-grad)" stroke-width="8"/>
  <circle cx="98"  cy="555" r="12" fill="white" stroke="#c0ccd8" stroke-width="1"/>
  <!-- Ratchet teeth between rings -->
  <path d="M 72,551 L 84,551" stroke="#c0ccd8" stroke-width="1.5"/>
  <path d="M 70,555 L 82,555" stroke="#c0ccd8" stroke-width="1.5"/>
  <path d="M 72,559 L 84,559" stroke="#c0ccd8" stroke-width="1.5"/>
  <!-- Shanks to box lock -->
  <path d="M 70,548 L 126,556" stroke="url(#steel-v)" stroke-width="8" stroke-linecap="round"/>
  <path d="M 86,548 L 140,556" stroke="url(#steel-v)" stroke-width="8" stroke-linecap="round"/>
  <!-- Box lock -->
  <rect x="122" y="550" width="16" height="13" rx="2" fill="#6080a0" stroke="#405060" stroke-width="1.2"/>
  <!-- Jaws — horizontal serrations, straight -->
  <rect x="138" y="551" width="195" height="10" rx="2" fill="url(#steel-h)" stroke="#6080a0" stroke-width="0.8"/>
  <rect x="138" y="562" width="195" height="10" rx="2" fill="url(#steel-h)" stroke="#6080a0" stroke-width="0.8"/>
  <!-- Serration lines on jaws -->
  <line x1="155" y1="551" x2="155" y2="572" stroke="#b0c0d0" stroke-width="0.8"/>
  <line x1="170" y1="551" x2="170" y2="572" stroke="#b0c0d0" stroke-width="0.8"/>
  <line x1="185" y1="551" x2="185" y2="572" stroke="#b0c0d0" stroke-width="0.8"/>
  <line x1="200" y1="551" x2="200" y2="572" stroke="#b0c0d0" stroke-width="0.8"/>
  <line x1="215" y1="551" x2="215" y2="572" stroke="#b0c0d0" stroke-width="0.8"/>
  <line x1="230" y1="551" x2="230" y2="572" stroke="#b0c0d0" stroke-width="0.8"/>
  <line x1="245" y1="551" x2="245" y2="572" stroke="#b0c0d0" stroke-width="0.8"/>
  <line x1="260" y1="551" x2="260" y2="572" stroke="#b0c0d0" stroke-width="0.8"/>
  <line x1="275" y1="551" x2="275" y2="572" stroke="#b0c0d0" stroke-width="0.8"/>
  <line x1="290" y1="551" x2="290" y2="572" stroke="#b0c0d0" stroke-width="0.8"/>
  <line x1="305" y1="551" x2="305" y2="572" stroke="#b0c0d0" stroke-width="0.8"/>
  <line x1="320" y1="551" x2="320" y2="572" stroke="#b0c0d0" stroke-width="0.8"/>
  <!-- Jaw highlight -->
  <line x1="140" y1="553" x2="332" y2="553" stroke="#ffffff" stroke-width="1" opacity="0.7"/>
  <text x="202" y="630" text-anchor="middle" class="card-sub">Straight or curved jaw variants</text>
  <text x="202" y="644" text-anchor="middle" class="card-sub">Half-serrated = serrations on distal half only</text>
  <text x="202" y="658" text-anchor="middle" class="card-sub">Crile: identical jaw, slightly longer</text>

  <!-- ─── Card: Kocher (Ochsner) Clamp ─── -->
  <rect x="400" y="477" width="365" height="190" rx="6" fill="white" stroke="#e2e8f0" stroke-width="1.5" filter="url(#shadow)"/>
  <text x="582" y="497" text-anchor="middle" class="card-title">Kocher (Ochsner) Clamp</text>
  <text x="582" y="511" text-anchor="middle" class="card-sub">Heavy; fully serrated jaw with 1×2 teeth at tip — dense tissue</text>
  <!-- Rings -->
  <circle cx="438" cy="555" r="20" fill="none" stroke="url(#ring-grad)" stroke-width="8"/>
  <circle cx="438" cy="555" r="12" fill="white" stroke="#c0ccd8" stroke-width="1"/>
  <circle cx="478" cy="555" r="20" fill="none" stroke="url(#ring-grad)" stroke-width="8"/>
  <circle cx="478" cy="555" r="12" fill="white" stroke="#c0ccd8" stroke-width="1"/>
  <!-- Ratchet -->
  <path d="M 452,551 L 464,551" stroke="#c0ccd8" stroke-width="1.5"/>
  <path d="M 450,555 L 462,555" stroke="#c0ccd8" stroke-width="1.5"/>
  <path d="M 452,559 L 464,559" stroke="#c0ccd8" stroke-width="1.5"/>
  <!-- Shanks -->
  <path d="M 450,548 L 506,556" stroke="url(#steel-v)" stroke-width="8" stroke-linecap="round"/>
  <path d="M 466,548 L 520,556" stroke="url(#steel-v)" stroke-width="8" stroke-linecap="round"/>
  <!-- Box lock -->
  <rect x="502" y="550" width="16" height="13" rx="2" fill="#6080a0" stroke="#405060" stroke-width="1.2"/>
  <!-- Jaws — heavy, full serrations -->
  <rect x="518" y="550" width="200" height="11" rx="2" fill="url(#steel-h)" stroke="#6080a0" stroke-width="0.8"/>
  <rect x="518" y="562" width="200" height="11" rx="2" fill="url(#steel-h)" stroke="#6080a0" stroke-width="0.8"/>
  <!-- Heavy serration marks -->
  <line x1="535" y1="550" x2="535" y2="574" stroke="#8090a0" stroke-width="1"/>
  <line x1="550" y1="550" x2="550" y2="574" stroke="#8090a0" stroke-width="1"/>
  <line x1="565" y1="550" x2="565" y2="574" stroke="#8090a0" stroke-width="1"/>
  <line x1="580" y1="550" x2="580" y2="574" stroke="#8090a0" stroke-width="1"/>
  <line x1="595" y1="550" x2="595" y2="574" stroke="#8090a0" stroke-width="1"/>
  <line x1="610" y1="550" x2="610" y2="574" stroke="#8090a0" stroke-width="1"/>
  <line x1="625" y1="550" x2="625" y2="574" stroke="#8090a0" stroke-width="1"/>
  <line x1="640" y1="550" x2="640" y2="574" stroke="#8090a0" stroke-width="1"/>
  <line x1="655" y1="550" x2="655" y2="574" stroke="#8090a0" stroke-width="1"/>
  <line x1="670" y1="550" x2="670" y2="574" stroke="#8090a0" stroke-width="1"/>
  <line x1="685" y1="550" x2="685" y2="574" stroke="#8090a0" stroke-width="1"/>
  <line x1="700" y1="550" x2="700" y2="574" stroke="#8090a0" stroke-width="1"/>
  <!-- 1×2 teeth at tip -->
  <rect x="714" y="548" width="6" height="6" rx="1" fill="#4a6070"/>
  <rect x="714" y="569" width="6" height="5" rx="1" fill="#4a6070"/>
  <rect x="714" y="555" width="6" height="5" rx="1" fill="#4a6070"/>
  <text x="582" y="630" text-anchor="middle" class="card-sub">1×2 tooth at the tip = toothed Kocher</text>
  <text x="582" y="644" text-anchor="middle" class="card-sub">Used for fascia, pedicles, heavy tissue</text>

  <!-- ─── Card: Allis Clamp ─── -->
  <rect x="780" y="477" width="400" height="190" rx="6" fill="white" stroke="#e2e8f0" stroke-width="1.5" filter="url(#shadow)"/>
  <text x="980" y="497" text-anchor="middle" class="card-title">Allis Clamp</text>
  <text x="980" y="511" text-anchor="middle" class="card-sub">Multiple interlocking teeth at tip — grips tissue to be excised</text>
  <!-- Rings -->
  <circle cx="818" cy="550" r="20" fill="none" stroke="url(#ring-grad)" stroke-width="8"/>
  <circle cx="818" cy="550" r="12" fill="white" stroke="#c0ccd8" stroke-width="1"/>
  <circle cx="858" cy="550" r="20" fill="none" stroke="url(#ring-grad)" stroke-width="8"/>
  <circle cx="858" cy="550" r="12" fill="white" stroke="#c0ccd8" stroke-width="1"/>
  <!-- Ratchet -->
  <path d="M 832,546 L 844,546" stroke="#c0ccd8" stroke-width="1.5"/>
  <path d="M 830,550 L 842,550" stroke="#c0ccd8" stroke-width="1.5"/>
  <path d="M 832,554 L 844,554" stroke="#c0ccd8" stroke-width="1.5"/>
  <!-- Shanks -->
  <path d="M 832,543 L 888,552" stroke="url(#steel-v)" stroke-width="8" stroke-linecap="round"/>
  <path d="M 848,543 L 902,552" stroke="url(#steel-v)" stroke-width="8" stroke-linecap="round"/>
  <!-- Box lock -->
  <rect x="884" y="546" width="16" height="13" rx="2" fill="#6080a0" stroke="#405060" stroke-width="1.2"/>
  <!-- Jaws — open at tip showing interlocking teeth -->
  <path d="M 900,545 L 1140,546 L 1140,554 L 900,553 Z" fill="url(#steel-h)" stroke="#6080a0" stroke-width="0.8"/>
  <path d="M 900,557 L 1140,558 L 1140,566 L 900,565 Z" fill="url(#steel-h)" stroke="#6080a0" stroke-width="0.8"/>
  <!-- Allis interlocking teeth at tips -->
  <line x1="1128" y1="545" x2="1128" y2="566" stroke="#4a6070" stroke-width="2"/>
  <line x1="1133" y1="545" x2="1133" y2="566" stroke="#4a6070" stroke-width="2"/>
  <line x1="1138" y1="545" x2="1138" y2="566" stroke="#4a6070" stroke-width="2"/>
  <line x1="1143" y1="545" x2="1143" y2="566" stroke="#4a6070" stroke-width="2"/>
  <text x="980" y="630" text-anchor="middle" class="card-sub">Traumatic — tissue grasped is usually excised</text>
  <text x="980" y="644" text-anchor="middle" class="card-sub">NOT for bowel — use Babcock instead</text>

  <!-- ─── Card: Babcock Clamp ─── -->
  <rect x="20" y="678" width="365" height="185" rx="6" fill="white" stroke="#e2e8f0" stroke-width="1.5" filter="url(#shadow)"/>
  <text x="202" y="698" text-anchor="middle" class="card-title">Babcock Clamp</text>
  <text x="202" y="712" text-anchor="middle" class="card-sub">Smooth fenestrated oval jaw — atraumatic bowel and tube grasping</text>
  <!-- Rings -->
  <circle cx="58"  cy="753" r="20" fill="none" stroke="url(#ring-grad)" stroke-width="8"/>
  <circle cx="58"  cy="753" r="12" fill="white" stroke="#c0ccd8" stroke-width="1"/>
  <circle cx="98"  cy="753" r="20" fill="none" stroke="url(#ring-grad)" stroke-width="8"/>
  <circle cx="98"  cy="753" r="12" fill="white" stroke="#c0ccd8" stroke-width="1"/>
  <!-- Ratchet -->
  <path d="M 72,749 L 84,749" stroke="#c0ccd8" stroke-width="1.5"/>
  <path d="M 70,753 L 82,753" stroke="#c0ccd8" stroke-width="1.5"/>
  <path d="M 72,757 L 84,757" stroke="#c0ccd8" stroke-width="1.5"/>
  <!-- Shanks -->
  <path d="M 70,746 L 126,754" stroke="url(#steel-v)" stroke-width="8" stroke-linecap="round"/>
  <path d="M 86,746 L 140,754" stroke="url(#steel-v)" stroke-width="8" stroke-linecap="round"/>
  <!-- Box lock -->
  <rect x="122" y="748" width="16" height="13" rx="2" fill="#6080a0" stroke="#405060" stroke-width="1.2"/>
  <!-- Babcock fenestrated oval jaw -->
  <path d="M 138,742 Q 220,728 290,735 Q 310,742 310,754 Q 310,766 290,772 Q 220,780 138,764 Z" fill="url(#steel-h)" stroke="#6080a0" stroke-width="1"/>
  <!-- Fenestration (hollow oval) -->
  <ellipse cx="225" cy="754" rx="62" ry="14" fill="white" stroke="#8090a0" stroke-width="0.8"/>
  <text x="202" y="820" text-anchor="middle" class="card-sub">Smooth jaw = no tissue damage</text>
  <text x="202" y="834" text-anchor="middle" class="card-sub">Appendix · bowel · fallopian tube</text>
  <text x="202" y="848" text-anchor="middle" class="card-sub">Fenestration visible when jaw is open</text>

  <!-- ─── Card: DeBakey Forceps ─── -->
  <rect x="400" y="678" width="280" height="185" rx="6" fill="white" stroke="#e2e8f0" stroke-width="1.5" filter="url(#shadow)"/>
  <text x="540" y="698" text-anchor="middle" class="card-title">DeBakey Forceps</text>
  <text x="540" y="712" text-anchor="middle" class="card-sub">Atraumatic serrated jaw — vessels and bowel</text>
  <!-- Spring forceps — two tines from a thumb platform -->
  <!-- Thumb platform -->
  <rect x="500" y="732" width="80" height="14" rx="5" fill="url(#handle-grip)"/>
  <!-- Grip serrations on platform -->
  <line x1="520" y1="732" x2="520" y2="746" stroke="#6b7280" stroke-width="1.2"/>
  <line x1="530" y1="732" x2="530" y2="746" stroke="#6b7280" stroke-width="1.2"/>
  <line x1="540" y1="732" x2="540" y2="746" stroke="#6b7280" stroke-width="1.2"/>
  <line x1="550" y1="732" x2="550" y2="746" stroke="#6b7280" stroke-width="1.2"/>
  <line x1="560" y1="732" x2="560" y2="746" stroke="#6b7280" stroke-width="1.2"/>
  <!-- Two long tines -->
  <rect x="524" y="746" width="7" height="90" rx="3" fill="url(#steel-h)" stroke="#6080a0" stroke-width="0.8"/>
  <rect x="549" y="746" width="7" height="90" rx="3" fill="url(#steel-h)" stroke="#6080a0" stroke-width="0.8"/>
  <!-- Fine atraumatic jaw at tip (convergent) -->
  <path d="M 524,836 Q 534,848 537,850 Q 540,852 543,850 Q 546,848 556,836" stroke="#6080a0" stroke-width="2.5" fill="none"/>
  <!-- Serration marks on jaw -->
  <line x1="527" y1="838" x2="533" y2="844" stroke="#8090a0" stroke-width="0.8"/>
  <line x1="531" y1="836" x2="537" y2="842" stroke="#8090a0" stroke-width="0.8"/>
  <line x1="549" y1="836" x2="543" y2="842" stroke="#8090a0" stroke-width="0.8"/>
  <line x1="553" y1="838" x2="547" y2="844" stroke="#8090a0" stroke-width="0.8"/>
  <text x="540" y="832" text-anchor="middle" class="card-sub" dy="34">Vascular · bowel · delicate tissue</text>
  <text x="540" y="848" text-anchor="middle" class="card-sub" dy="14">Never use on skin — atraumatic only</text>

  <!-- ─── Card: Adson Forceps ─── -->
  <rect x="695" y="678" width="280" height="185" rx="6" fill="white" stroke="#e2e8f0" stroke-width="1.5" filter="url(#shadow)"/>
  <text x="835" y="698" text-anchor="middle" class="card-title">Adson Forceps (Toothed)</text>
  <text x="835" y="712" text-anchor="middle" class="card-sub">1×2 teeth at tip — skin grasping</text>
  <!-- Thumb platform -->
  <rect x="795" y="732" width="80" height="14" rx="5" fill="url(#handle-grip)"/>
  <line x1="815" y1="732" x2="815" y2="746" stroke="#6b7280" stroke-width="1.2"/>
  <line x1="825" y1="732" x2="825" y2="746" stroke="#6b7280" stroke-width="1.2"/>
  <line x1="835" y1="732" x2="835" y2="746" stroke="#6b7280" stroke-width="1.2"/>
  <line x1="845" y1="732" x2="845" y2="746" stroke="#6b7280" stroke-width="1.2"/>
  <line x1="855" y1="732" x2="855" y2="746" stroke="#6b7280" stroke-width="1.2"/>
  <!-- Two short wider tines (Adson is shorter than DeBakey) -->
  <rect x="819" y="746" width="8" height="75" rx="3" fill="url(#steel-h)" stroke="#6080a0" stroke-width="0.8"/>
  <rect x="843" y="746" width="8" height="75" rx="3" fill="url(#steel-h)" stroke="#6080a0" stroke-width="0.8"/>
  <!-- 1×2 tooth jaw -->
  <path d="M 819,821 Q 830,832 835,834 Q 840,832 851,821" stroke="#6080a0" stroke-width="2.5" fill="none"/>
  <!-- Tooth at each tip -->
  <path d="M 822,824 L 820,830 L 826,824" fill="#4a6070"/>
  <path d="M 848,824 L 850,830 L 844,824" fill="#4a6070"/>
  <path d="M 835,833 L 833,839 L 838,833" fill="#4a6070"/>
  <text x="835" y="848" text-anchor="middle" class="card-sub" dy="0">Skin · dermis · wound edges</text>
  <text x="835" y="862" text-anchor="middle" class="card-sub">Short length — superficial use</text>

  <!-- ─── Card: Mayo-Hegar Needle Driver ─── -->
  <rect x="990" y="678" width="190" height="185" rx="6" fill="white" stroke="#e2e8f0" stroke-width="1.5" filter="url(#shadow)"/>
  <text x="1085" y="698" text-anchor="middle" class="card-title">Mayo-Hegar</text>
  <text x="1085" y="712" text-anchor="middle" class="card-sub">Needle Driver</text>
  <!-- Rings (vertical layout since card is narrow) -->
  <circle cx="1042" cy="742" r="18" fill="none" stroke="url(#ring-grad)" stroke-width="7"/>
  <circle cx="1042" cy="742" r="11" fill="white" stroke="#c0ccd8" stroke-width="1"/>
  <circle cx="1042" cy="786" r="18" fill="none" stroke="url(#ring-grad)" stroke-width="7"/>
  <circle cx="1042" cy="786" r="11" fill="white" stroke="#c0ccd8" stroke-width="1"/>
  <!-- Ratchet -->
  <path d="M 1048,762 L 1048,766" stroke="#c0ccd8" stroke-width="1.5"/>
  <path d="M 1044,764 L 1050,764" stroke="#c0ccd8" stroke-width="1.5"/>
  <!-- Shank and jaws (side-on view) -->
  <path d="M 1060,742 L 1150,745" stroke="url(#steel-v)" stroke-width="7" stroke-linecap="round"/>
  <path d="M 1060,786 L 1150,783" stroke="url(#steel-v)" stroke-width="7" stroke-linecap="round"/>
  <!-- Box lock -->
  <rect x="1056" y="758" width="12" height="10" rx="2" fill="#6080a0" stroke="#405060" stroke-width="1"/>
  <!-- Heavy short jaws converging -->
  <rect x="1068" y="745" width="75" height="9" rx="1" fill="#3a4a5a" stroke="#405060" stroke-width="0.8"/>
  <rect x="1068" y="781" width="75" height="9" rx="1" fill="#3a4a5a" stroke="#405060" stroke-width="0.8"/>
  <!-- Cross-hatch texture on jaws -->
  <line x1="1078" y1="745" x2="1078" y2="790" stroke="#5060708" stroke-width="0.7"/>
  <line x1="1090" y1="745" x2="1090" y2="790" stroke="#506070" stroke-width="0.7"/>
  <line x1="1102" y1="745" x2="1102" y2="790" stroke="#506070" stroke-width="0.7"/>
  <line x1="1114" y1="745" x2="1114" y2="790" stroke="#506070" stroke-width="0.7"/>
  <line x1="1126" y1="745" x2="1126" y2="790" stroke="#506070" stroke-width="0.7"/>
  <line x1="1138" y1="745" x2="1138" y2="790" stroke="#506070" stroke-width="0.7"/>
  <!-- Loaded suture needle (small, red arc) -->
  <path d="M 1112,749 Q 1130,754 1128,764 Q 1126,774 1108,776" stroke="#dc2626" stroke-width="1.8" fill="none"/>
  <line x1="1108" y1="776" x2="1095" y2="778" stroke="#dc2626" stroke-width="1.2"/>
  <text x="1085" y="835" text-anchor="middle" class="card-sub">Cross-hatch jaw grips needle</text>
  <text x="1085" y="849" text-anchor="middle" class="card-sub">Load at 2/3 down needle</text>
  <text x="1085" y="854" text-anchor="middle" class="card-sub" dy="6">Red arc = loaded suture</text>

  <!-- ═══════════════════════════════════════════════════
       SECTION 3: RETRACTORS
  ═══════════════════════════════════════════════════ -->
  <rect x="20" y="878" width="1160" height="18" rx="4" fill="#15803d"/>
  <text x="600" y="891" text-anchor="middle" class="section-hd" fill="white">RETRACTORS</text>

  <!-- ─── Card: Army-Navy ─── -->
  <rect x="20" y="903" width="260" height="200" rx="6" fill="white" stroke="#e2e8f0" stroke-width="1.5" filter="url(#shadow)"/>
  <text x="150" y="923" text-anchor="middle" class="card-title">Army-Navy Retractor</text>
  <text x="150" y="937" text-anchor="middle" class="card-sub">Double-ended S-shape — skin and subcutaneous tissue</text>
  <!-- Double-ended: long flat handle with blades each end -->
  <!-- Handle -->
  <rect x="75" y="990" width="100" height="14" rx="4" fill="url(#handle-grip)"/>
  <!-- Upper blade -->
  <path d="M 75,990 Q 55,985 42,960 Q 38,950 44,945 Q 50,940 56,948 Q 62,958 70,978 L 75,990 Z" fill="url(#steel-h)" stroke="#6080a0" stroke-width="1"/>
  <!-- Lower blade -->
  <path d="M 175,1004 Q 195,1009 208,1034 Q 212,1044 206,1049 Q 200,1054 194,1046 Q 188,1036 180,1016 L 175,1004 Z" fill="url(#steel-h)" stroke="#6080a0" stroke-width="1"/>
  <!-- Handle highlight -->
  <line x1="77" y1="992" x2="173" y2="992" stroke="#ffffff" stroke-width="1" opacity="0.6"/>
  <text x="150" y="1068" text-anchor="middle" class="card-sub">Held by an assistant</text>
  <text x="150" y="1082" text-anchor="middle" class="card-sub">S-shape = can retract in either direction</text>

  <!-- ─── Card: Deaver ─── -->
  <rect x="295" y="903" width="230" height="200" rx="6" fill="white" stroke="#e2e8f0" stroke-width="1.5" filter="url(#shadow)"/>
  <text x="410" y="923" text-anchor="middle" class="card-title">Deaver Retractor</text>
  <text x="410" y="937" text-anchor="middle" class="card-sub">Curved blade, T-handle — deep abdominal</text>
  <!-- T-handle top -->
  <rect x="370" y="948" width="80" height="12" rx="5" fill="url(#handle-grip)"/>
  <!-- Long narrow blade going down then curving -->
  <rect x="403" y="960" width="14" height="80" rx="3" fill="url(#steel-h)" stroke="#6080a0" stroke-width="0.8"/>
  <!-- Curved bottom (the retractor blade) -->
  <path d="M 389,1040 Q 390,1075 410,1080 Q 430,1085 431,1040" stroke="url(#steel-v)" stroke-width="14" fill="none" stroke-linecap="round"/>
  <!-- Highlights on blade -->
  <line x1="405" y1="962" x2="405" y2="1036" stroke="#ffffff" stroke-width="1.5" opacity="0.5"/>
  <text x="410" y="1068" text-anchor="middle" class="card-sub">Multiple sizes (1" – 3" wide)</text>
  <text x="410" y="1082" text-anchor="middle" class="card-sub">Retracts liver, bowel, pelvic structures</text>

  <!-- ─── Card: Richardson ─── -->
  <rect x="540" y="903" width="230" height="200" rx="6" fill="white" stroke="#e2e8f0" stroke-width="1.5" filter="url(#shadow)"/>
  <text x="655" y="923" text-anchor="middle" class="card-title">Richardson Retractor</text>
  <text x="655" y="937" text-anchor="middle" class="card-sub">Hooked blade, flat handle — abdominal wall</text>
  <!-- Flat handle -->
  <rect x="580" y="975" width="80" height="12" rx="4" fill="url(#handle-grip)"/>
  <!-- L-shaped hook: down then curves -->
  <rect x="618" y="987" width="14" height="50" rx="3" fill="url(#steel-h)" stroke="#6080a0" stroke-width="0.8"/>
  <!-- Hook at bottom -->
  <path d="M 604,1037 L 644,1037 Q 644,1070 604,1070 Z" fill="url(#steel-h)" stroke="#6080a0" stroke-width="0.8"/>
  <line x1="620" y1="977" x2="620" y2="1033" stroke="#ffffff" stroke-width="1.5" opacity="0.5"/>
  <text x="655" y="1068" text-anchor="middle" class="card-sub">Held by assistant; hand-held</text>
  <text x="655" y="1082" text-anchor="middle" class="card-sub">Larger = deeper retraction</text>

  <!-- ─── Card: Weitlaner (Self-Retaining) ─── -->
  <rect x="785" y="903" width="300" height="200" rx="6" fill="white" stroke="#e2e8f0" stroke-width="1.5" filter="url(#shadow)"/>
  <text x="935" y="923" text-anchor="middle" class="card-title">Weitlaner Retractor</text>
  <text x="935" y="937" text-anchor="middle" class="card-sub">Spring self-retaining with sharp prongs — small incisions</text>
  <!-- Rings at ends -->
  <circle cx="840" cy="1000" r="16" fill="none" stroke="url(#ring-grad)" stroke-width="6"/>
  <circle cx="840" cy="1000" r="10" fill="white" stroke="#c0ccd8" stroke-width="1"/>
  <circle cx="1030" cy="1000" r="16" fill="none" stroke="url(#ring-grad)" stroke-width="6"/>
  <circle cx="1030" cy="1000" r="10" fill="white" stroke="#c0ccd8" stroke-width="1"/>
  <!-- Box lock center -->
  <rect x="925" y="994" width="20" height="12" rx="3" fill="#6080a0" stroke="#405060" stroke-width="1.2"/>
  <!-- Shanks -->
  <path d="M 848,1000 L 925,1000" stroke="#8090a0" stroke-width="6" stroke-linecap="round"/>
  <path d="M 945,1000 L 1022,1000" stroke="#8090a0" stroke-width="6" stroke-linecap="round"/>
  <!-- Left arm going down with 2 prongs -->
  <path d="M 840,1006 L 840,1060" stroke="#6080a0" stroke-width="6" stroke-linecap="round"/>
  <path d="M 840,1060 L 820,1090" stroke="#4a6070" stroke-width="4" stroke-linecap="round"/>
  <path d="M 820,1090 L 816,1100" stroke="#374151" stroke-width="3" stroke-linecap="round"/>
  <path d="M 840,1060 L 860,1090" stroke="#4a6070" stroke-width="4" stroke-linecap="round"/>
  <path d="M 860,1090 L 864,1100" stroke="#374151" stroke-width="3" stroke-linecap="round"/>
  <!-- Right arm going down with 2 prongs -->
  <path d="M 1030,1006 L 1030,1060" stroke="#6080a0" stroke-width="6" stroke-linecap="round"/>
  <path d="M 1030,1060 L 1010,1090" stroke="#4a6070" stroke-width="4" stroke-linecap="round"/>
  <path d="M 1010,1090 L 1006,1100" stroke="#374151" stroke-width="3" stroke-linecap="round"/>
  <path d="M 1030,1060 L 1050,1090" stroke="#4a6070" stroke-width="4" stroke-linecap="round"/>
  <path d="M 1050,1090 L 1054,1100" stroke="#374151" stroke-width="3" stroke-linecap="round"/>
  <text x="935" y="1068" text-anchor="middle" class="card-sub">Ratchet locks the arms apart</text>
  <text x="935" y="1082" text-anchor="middle" class="card-sub">Orthopedic · small wounds · no assistant needed</text>

  <!-- ─── Card: Finochietto ─── -->
  <rect x="1100" y="903" width="80" height="200" rx="6" fill="white" stroke="#e2e8f0" stroke-width="1.5" filter="url(#shadow)"/>
  <text x="1140" y="923" text-anchor="middle" font-size="11" font-weight="700" fill="#1e293b">Finochietto</text>
  <text x="1140" y="936" text-anchor="middle" font-size="9" fill="#475569">Sternal/rib spreader</text>
  <!-- Compact vertical drawing -->
  <!-- Central crank screw -->
  <rect x="1130" y="955" width="20" height="14" rx="3" fill="#6080a0" stroke="#405060" stroke-width="1"/>
  <line x1="1140" y1="955" x2="1140" y2="948" stroke="#4a6070" stroke-width="3"/>
  <circle cx="1140" cy="946" r="5" fill="#7090a8"/>
  <!-- Left blade going down-left -->
  <path d="M 1130,962 Q 1115,968 1110,990 L 1108,1060" stroke="#6080a0" stroke-width="10" fill="none" stroke-linecap="round"/>
  <!-- Right blade going down-right -->
  <path d="M 1150,962 Q 1165,968 1170,990 L 1172,1060" stroke="#6080a0" stroke-width="10" fill="none" stroke-linecap="round"/>
  <text x="1140" y="1082" text-anchor="middle" font-size="9" fill="#475569">Cardiac/thoracic</text>

  <!-- ═══════════════════════════════════════════════════
       SECTION 4: SUCTION DEVICES
  ═══════════════════════════════════════════════════ -->
  <rect x="20" y="1118" width="1160" height="18" rx="4" fill="#7c3aed"/>
  <text x="600" y="1131" text-anchor="middle" class="section-hd" fill="white">SUCTION DEVICES</text>

  <!-- ─── Card: Yankauer ─── -->
  <rect x="20" y="1143" width="380" height="165" rx="6" fill="white" stroke="#e2e8f0" stroke-width="1.5" filter="url(#shadow)"/>
  <text x="210" y="1163" text-anchor="middle" class="card-title">Yankauer Suction</text>
  <text x="210" y="1177" text-anchor="middle" class="card-sub">Rigid curved tube, bulbous tip — oropharynx, general</text>
  <!-- Handle -->
  <rect x="30" y="1205" width="80" height="20" rx="8" fill="#1e293b" stroke="#0f172a" stroke-width="1"/>
  <!-- Thumb vent hole -->
  <circle cx="52" cy="1215" r="6" fill="#475569" stroke="#0f172a" stroke-width="1"/>
  <circle cx="52" cy="1215" r="3" fill="#0f172a"/>
  <!-- Rigid curved tube -->
  <path d="M 110,1215 Q 180,1215 230,1205 Q 280,1196 320,1200 Q 360,1204 372,1212" stroke="#8090a0" stroke-width="12" fill="none" stroke-linecap="round"/>
  <!-- Inner lumen highlight -->
  <path d="M 112,1212 Q 180,1212 228,1202 Q 278,1193 318,1197" stroke="#c0d0e0" stroke-width="4" fill="none" stroke-linecap="round"/>
  <!-- Bulbous tip with fenestrations -->
  <circle cx="374" cy="1214" r="10" fill="#9090a0" stroke="#6070808" stroke-width="1"/>
  <circle cx="374" cy="1214" r="5" fill="#b0c0d0"/>
  <circle cx="368" cy="1210" r="2" fill="#6080a0"/>
  <circle cx="380" cy="1210" r="2" fill="#6080a0"/>
  <circle cx="368" cy="1218" r="2" fill="#6080a0"/>
  <circle cx="380" cy="1218" r="2" fill="#6080a0"/>
  <text x="210" y="1270" text-anchor="middle" class="card-sub">Thumb vent = controls suction intensity</text>
  <text x="210" y="1284" text-anchor="middle" class="card-sub">Cover vent = full suction · Uncover = off</text>

  <!-- ─── Card: Frazier ─── -->
  <rect x="415" y="1143" width="340" height="165" rx="6" fill="white" stroke="#e2e8f0" stroke-width="1.5" filter="url(#shadow)"/>
  <text x="585" y="1163" text-anchor="middle" class="card-title">Frazier (Ferguson) Suction</text>
  <text x="585" y="1177" text-anchor="middle" class="card-sub">Thin angled tip — neuro, ENT, ear, small spaces</text>
  <!-- Small handle -->
  <rect x="430" y="1208" width="55" height="14" rx="6" fill="#1e293b"/>
  <!-- Vent hole -->
  <circle cx="448" cy="1215" r="4.5" fill="#475569"/>
  <circle cx="448" cy="1215" r="2" fill="#0f172a"/>
  <!-- Angled narrow tube: goes forward then angles up -->
  <path d="M 485,1215 L 620,1215 Q 640,1215 660,1195" stroke="#8090a0" stroke-width="5" fill="none" stroke-linecap="round"/>
  <!-- Inner lumen -->
  <path d="M 487,1215 L 618,1215 Q 638,1215 657,1196" stroke="#c0d0e0" stroke-width="2" fill="none"/>
  <!-- Fine tip end -->
  <circle cx="660" cy="1193" r="3.5" fill="#9090a0"/>
  <!-- Tubing connector at rear -->
  <path d="M 430,1215 Q 415,1215 408,1224" stroke="#475569" stroke-width="5" fill="none" stroke-linecap="round"/>
  <text x="585" y="1270" text-anchor="middle" class="card-sub">Available in multiple gauges (4 Fr – 12 Fr)</text>
  <text x="585" y="1284" text-anchor="middle" class="card-sub">Neurosurgery · ENT · ear · deep wound tracking</text>

  <!-- ─── Card: Poole ─── -->
  <rect x="770" y="1143" width="410" height="165" rx="6" fill="white" stroke="#e2e8f0" stroke-width="1.5" filter="url(#shadow)"/>
  <text x="975" y="1163" text-anchor="middle" class="card-title">Poole Abdominal Suction</text>
  <text x="975" y="1177" text-anchor="middle" class="card-sub">Fenestrated sleeve over inner cannula — large volume fluid removal</text>
  <!-- Handle/connector -->
  <rect x="790" y="1205" width="50" height="20" rx="5" fill="#1e293b"/>
  <!-- Outer fenestrated sleeve (lighter gray, larger diameter) -->
  <rect x="840" y="1200" width="310" height="25" rx="6" fill="#9090a0" stroke="#6070808" stroke-width="0.8"/>
  <!-- Fenestrations (holes in sleeve) -->
  <circle cx="870"  cy="1212" r="4" fill="#e8ecf0"/>
  <circle cx="900"  cy="1212" r="4" fill="#e8ecf0"/>
  <circle cx="930"  cy="1212" r="4" fill="#e8ecf0"/>
  <circle cx="960"  cy="1212" r="4" fill="#e8ecf0"/>
  <circle cx="990"  cy="1212" r="4" fill="#e8ecf0"/>
  <circle cx="1020" cy="1212" r="4" fill="#e8ecf0"/>
  <circle cx="1050" cy="1212" r="4" fill="#e8ecf0"/>
  <circle cx="1080" cy="1212" r="4" fill="#e8ecf0"/>
  <circle cx="1110" cy="1212" r="4" fill="#e8ecf0"/>
  <!-- Inner cannula (darker, slightly smaller) -->
  <rect x="840" y="1204" width="310" height="17" rx="4" fill="#6a7a8a" stroke="#4a5a6a" stroke-width="0.8"/>
  <!-- Sleeve highlight -->
  <line x1="842" y1="1202" x2="1148" y2="1202" stroke="#c0d0e0" stroke-width="1.2" opacity="0.7"/>
  <!-- Open end of sleeve at tip -->
  <rect x="1148" y="1198" width="8" height="29" rx="2" fill="#4a5a6a"/>
  <text x="975" y="1270" text-anchor="middle" class="card-sub">Sleeve slides off inner cannula for cleaning</text>
  <text x="975" y="1284" text-anchor="middle" class="card-sub">Abdominal flooding · peritoneal lavage</text>

  <!-- ═══════════════════════════════════════════════════
       SECTION 5: SPECIALTY
  ═══════════════════════════════════════════════════ -->
  <rect x="20" y="1323" width="1160" height="18" rx="4" fill="#c2410c"/>
  <text x="600" y="1336" text-anchor="middle" class="section-hd" fill="white">SPECIALTY INSTRUMENTS</text>

  <!-- ─── Card: Kerrison Rongeur ─── -->
  <rect x="20" y="1348" width="340" height="118" rx="6" fill="white" stroke="#e2e8f0" stroke-width="1.5" filter="url(#shadow)"/>
  <text x="190" y="1368" text-anchor="middle" class="card-title">Kerrison Rongeur</text>
  <text x="190" y="1382" text-anchor="middle" class="card-sub">Long shaft with footplate + punch jaw — bite bone</text>
  <!-- Rings -->
  <circle cx="55"  cy="1412" r="17" fill="none" stroke="url(#ring-grad)" stroke-width="7"/>
  <circle cx="55"  cy="1412" r="10" fill="white" stroke="#c0ccd8" stroke-width="1"/>
  <circle cx="90"  cy="1412" r="17" fill="none" stroke="url(#ring-grad)" stroke-width="7"/>
  <circle cx="90"  cy="1412" r="10" fill="white" stroke="#c0ccd8" stroke-width="1"/>
  <!-- Long shaft -->
  <rect x="100" y="1407" width="195" height="10" rx="2" fill="url(#steel-h)" stroke="#6080a0" stroke-width="0.8"/>
  <!-- Footplate at end -->
  <rect x="293" y="1400" width="12" height="24" rx="2" fill="#374151" stroke="#1e293b" stroke-width="1"/>
  <!-- Punch jaw (slides up into footplate) -->
  <path d="M 293,1404 L 305,1400 L 305,1408 L 293,1408 Z" fill="#6080a0"/>
  <text x="190" y="1448" text-anchor="middle" class="card-sub">2 mm, 3 mm, 4 mm sizes; up-cut and down-cut</text>
  <text x="190" y="1462" text-anchor="middle" class="card-sub">Laminectomy · FESS bone removal</text>

  <!-- ─── Card: Hohmann ─── -->
  <rect x="375" y="1348" width="240" height="118" rx="6" fill="white" stroke="#e2e8f0" stroke-width="1.5" filter="url(#shadow)"/>
  <text x="495" y="1368" text-anchor="middle" class="card-title">Hohmann Retractor</text>
  <text x="495" y="1382" text-anchor="middle" class="card-sub">Sharp bone retractor — THA, TKA, acetabulum</text>
  <!-- T-shaped handle -->
  <rect x="450" y="1400" width="90" height="10" rx="4" fill="url(#handle-grip)"/>
  <!-- Shaft going down -->
  <rect x="490" y="1410" width="10" height="40" rx="2" fill="url(#steel-h)" stroke="#6080a0" stroke-width="0.8"/>
  <!-- Sharp tip at bottom (hook) -->
  <path d="M 482,1450 L 508,1450 L 495,1465 Z" fill="#374151" stroke="#1e293b" stroke-width="0.8"/>
  <text x="495" y="1448" text-anchor="middle" class="card-sub" dy="22">Sharp tip hooks around bone</text>

  <!-- ─── Card: Pituitary Rongeur ─── -->
  <rect x="630" y="1348" width="340" height="118" rx="6" fill="white" stroke="#e2e8f0" stroke-width="1.5" filter="url(#shadow)"/>
  <text x="800" y="1368" text-anchor="middle" class="card-title">Pituitary Rongeur</text>
  <text x="800" y="1382" text-anchor="middle" class="card-sub">Long shaft with cup jaws — disc space, nuclear material</text>
  <!-- Rings -->
  <circle cx="660" cy="1412" r="16" fill="none" stroke="url(#ring-grad)" stroke-width="6"/>
  <circle cx="660" cy="1412" r="10" fill="white" stroke="#c0ccd8" stroke-width="1"/>
  <circle cx="692" cy="1412" r="16" fill="none" stroke="url(#ring-grad)" stroke-width="6"/>
  <circle cx="692" cy="1412" r="10" fill="white" stroke="#c0ccd8" stroke-width="1"/>
  <!-- Long slender shaft -->
  <rect x="700" y="1408" width="230" height="8" rx="2" fill="url(#steel-h)" stroke="#6080a0" stroke-width="0.7"/>
  <!-- Cup jaws at end -->
  <ellipse cx="932" cy="1412" rx="10" ry="8" fill="#6a7a8a" stroke="#4a5a6a" stroke-width="1"/>
  <ellipse cx="932" cy="1412" rx="6"  ry="5"  fill="#9090a0"/>
  <text x="800" y="1448" text-anchor="middle" class="card-sub">Up-bite, down-bite, straight orientations</text>
  <text x="800" y="1462" text-anchor="middle" class="card-sub">Neurosurgery disc removal · FESS</text>

  <!-- ─── Card: Castroviejo Needle Driver ─── -->
  <rect x="985" y="1348" width="195" height="118" rx="6" fill="white" stroke="#e2e8f0" stroke-width="1.5" filter="url(#shadow)"/>
  <text x="1082" y="1368" text-anchor="middle" class="card-title">Castroviejo Needle Driver</text>
  <text x="1082" y="1382" text-anchor="middle" class="card-sub">Spring-action — micro suture, ophtho, vascular</text>
  <!-- Spring-action: two slender blades, no rings, spring at top -->
  <!-- Blade 1 -->
  <rect x="1060" y="1395" width="6" height="60" rx="2" fill="url(#steel-h)" stroke="#6080a0" stroke-width="0.7"/>
  <!-- Blade 2 -->
  <rect x="1098" y="1395" width="6" height="60" rx="2" fill="url(#steel-h)" stroke="#6080a0" stroke-width="0.7"/>
  <!-- Spring arch at top -->
  <path d="M 1060,1395 Q 1082,1385 1104,1395" stroke="#6080a0" stroke-width="3" fill="none" stroke-linecap="round"/>
  <!-- Fine converging jaw tips -->
  <path d="M 1060,1455 Q 1070,1465 1082,1467 Q 1094,1465 1104,1455" stroke="#6080a0" stroke-width="2.5" fill="none"/>
  <!-- Locking catch on one blade -->
  <rect x="1073" y="1428" width="18" height="6" rx="2" fill="#6080a0"/>
  <text x="1082" y="1452" text-anchor="middle" class="card-sub" dy="10">Spring-open design</text>

  <!-- Footer -->
  <rect x="20" y="1460" width="1160" height="14" rx="3" fill="#e2e8f0"/>
  <text x="600" y="1471" text-anchor="middle" font-size="9" fill="#64748b">All instruments are stainless steel unless otherwise noted. Sizes vary by manufacturer. Illustrations show representative geometry — not exact product dimensions.</text>

</svg>
